<mxfile host="app.diagrams.net" modified="2022-01-24T11:43:23.597Z" agent="5.0 (Windows NT 10.0; Win64; x64) AppleWebKit/537.36 (KHTML, like Gecko) Chrome/97.0.4692.71 Safari/537.36" etag="mULe6i9dcodMhfDKyT8j" version="16.4.5" type="github">
  <diagram id="2oNCtZzaEauoNy7HWeSt" name="Page-1">
    <mxGraphModel dx="1117" dy="1009" grid="1" gridSize="10" guides="1" tooltips="1" connect="1" arrows="1" fold="1" page="1" pageScale="1" pageWidth="827" pageHeight="1169" math="0" shadow="0">
      <root>
        <mxCell id="0" />
        <mxCell id="1" parent="0" />
        <mxCell id="xncA3wTDK_yP83BFo-M3-3" value="" style="edgeStyle=orthogonalEdgeStyle;rounded=0;orthogonalLoop=1;jettySize=auto;html=1;" parent="1" source="xncA3wTDK_yP83BFo-M3-1" edge="1">
          <mxGeometry relative="1" as="geometry">
            <mxPoint x="400" y="430" as="targetPoint" />
          </mxGeometry>
        </mxCell>
        <mxCell id="xncA3wTDK_yP83BFo-M3-1" value="Start RecursiveSort&lt;br&gt;Takes coordinates as input" style="ellipse;whiteSpace=wrap;html=1;" parent="1" vertex="1">
          <mxGeometry x="340" y="320" width="120" height="80" as="geometry" />
        </mxCell>
        <mxCell id="gamPem3xOQ82sWE4ZMdJ-4" style="edgeStyle=orthogonalEdgeStyle;rounded=0;orthogonalLoop=1;jettySize=auto;html=1;exitX=0.5;exitY=1;exitDx=0;exitDy=0;entryX=0.5;entryY=0;entryDx=0;entryDy=0;" parent="1" source="xncA3wTDK_yP83BFo-M3-5" target="gamPem3xOQ82sWE4ZMdJ-7" edge="1">
          <mxGeometry relative="1" as="geometry">
            <mxPoint x="400" y="600" as="targetPoint" />
          </mxGeometry>
        </mxCell>
        <mxCell id="psr84WM-ik2ZTbD9x01q-12" value="" style="edgeStyle=orthogonalEdgeStyle;rounded=0;orthogonalLoop=1;jettySize=auto;html=1;" parent="1" source="xncA3wTDK_yP83BFo-M3-5" edge="1">
          <mxGeometry relative="1" as="geometry">
            <mxPoint x="520" y="505" as="targetPoint" />
          </mxGeometry>
        </mxCell>
        <mxCell id="xncA3wTDK_yP83BFo-M3-5" value="&lt;span&gt;Check if current point is the end point&lt;/span&gt;" style="rhombus;whiteSpace=wrap;html=1;" parent="1" vertex="1">
          <mxGeometry x="315" y="430" width="165" height="150" as="geometry" />
        </mxCell>
        <mxCell id="xncA3wTDK_yP83BFo-M3-9" value="" style="edgeStyle=orthogonalEdgeStyle;rounded=0;orthogonalLoop=1;jettySize=auto;html=1;" parent="1" target="xncA3wTDK_yP83BFo-M3-8" edge="1">
          <mxGeometry relative="1" as="geometry">
            <mxPoint x="760" y="505" as="sourcePoint" />
          </mxGeometry>
        </mxCell>
        <mxCell id="xncA3wTDK_yP83BFo-M3-8" value="End" style="ellipse;whiteSpace=wrap;html=1;" parent="1" vertex="1">
          <mxGeometry x="800" y="475" width="120" height="60" as="geometry" />
        </mxCell>
        <mxCell id="psr84WM-ik2ZTbD9x01q-8" value="" style="edgeStyle=orthogonalEdgeStyle;rounded=0;orthogonalLoop=1;jettySize=auto;html=1;" parent="1" edge="1">
          <mxGeometry relative="1" as="geometry">
            <mxPoint x="400" y="1140" as="sourcePoint" />
            <mxPoint x="400" y="1179" as="targetPoint" />
          </mxGeometry>
        </mxCell>
        <mxCell id="psr84WM-ik2ZTbD9x01q-4" value="" style="edgeStyle=orthogonalEdgeStyle;rounded=0;orthogonalLoop=1;jettySize=auto;html=1;" parent="1" edge="1">
          <mxGeometry relative="1" as="geometry">
            <mxPoint x="400" y="1030" as="sourcePoint" />
            <mxPoint x="400" y="1060" as="targetPoint" />
          </mxGeometry>
        </mxCell>
        <mxCell id="psr84WM-ik2ZTbD9x01q-2" value="" style="edgeStyle=orthogonalEdgeStyle;rounded=0;orthogonalLoop=1;jettySize=auto;html=1;" parent="1" source="gamPem3xOQ82sWE4ZMdJ-7" target="psr84WM-ik2ZTbD9x01q-1" edge="1">
          <mxGeometry relative="1" as="geometry" />
        </mxCell>
        <mxCell id="xBaGsDeBP5O27WkXcvYu-4" value="" style="edgeStyle=orthogonalEdgeStyle;rounded=0;orthogonalLoop=1;jettySize=auto;html=1;" parent="1" source="gamPem3xOQ82sWE4ZMdJ-7" target="xBaGsDeBP5O27WkXcvYu-1" edge="1">
          <mxGeometry relative="1" as="geometry" />
        </mxCell>
        <mxCell id="gamPem3xOQ82sWE4ZMdJ-7" value="&lt;span&gt;Is current point a wall?&lt;/span&gt;" style="rhombus;whiteSpace=wrap;html=1;" parent="1" vertex="1">
          <mxGeometry x="315" y="620" width="170" height="150" as="geometry" />
        </mxCell>
        <mxCell id="psr84WM-ik2ZTbD9x01q-3" value="" style="edgeStyle=orthogonalEdgeStyle;rounded=0;orthogonalLoop=1;jettySize=auto;html=1;" parent="1" source="psr84WM-ik2ZTbD9x01q-1" edge="1">
          <mxGeometry relative="1" as="geometry">
            <mxPoint x="400" y="970" as="targetPoint" />
          </mxGeometry>
        </mxCell>
        <mxCell id="xBaGsDeBP5O27WkXcvYu-3" value="" style="edgeStyle=orthogonalEdgeStyle;rounded=0;orthogonalLoop=1;jettySize=auto;html=1;entryX=0;entryY=0.5;entryDx=0;entryDy=0;" parent="1" source="psr84WM-ik2ZTbD9x01q-1" target="xBaGsDeBP5O27WkXcvYu-2" edge="1">
          <mxGeometry relative="1" as="geometry" />
        </mxCell>
        <mxCell id="psr84WM-ik2ZTbD9x01q-1" value="&lt;span&gt;Is current point closer to the end point than the last?&lt;/span&gt;" style="rhombus;whiteSpace=wrap;html=1;" parent="1" vertex="1">
          <mxGeometry x="315" y="790" width="170" height="150" as="geometry" />
        </mxCell>
        <mxCell id="psr84WM-ik2ZTbD9x01q-9" value="" style="edgeStyle=orthogonalEdgeStyle;rounded=0;orthogonalLoop=1;jettySize=auto;html=1;exitX=0.5;exitY=1;exitDx=0;exitDy=0;" parent="1" source="u-rMy0u_MQQLpVvalmU5-6" edge="1">
          <mxGeometry relative="1" as="geometry">
            <mxPoint x="400" y="1259" as="sourcePoint" />
            <mxPoint x="400" y="1300" as="targetPoint" />
          </mxGeometry>
        </mxCell>
        <mxCell id="psr84WM-ik2ZTbD9x01q-10" value="" style="edgeStyle=orthogonalEdgeStyle;rounded=0;orthogonalLoop=1;jettySize=auto;html=1;exitX=0.5;exitY=1;exitDx=0;exitDy=0;" parent="1" source="u-rMy0u_MQQLpVvalmU5-7" edge="1">
          <mxGeometry relative="1" as="geometry">
            <mxPoint x="400" y="1380" as="sourcePoint" />
            <mxPoint x="400" y="1410" as="targetPoint" />
          </mxGeometry>
        </mxCell>
        <mxCell id="psr84WM-ik2ZTbD9x01q-13" style="edgeStyle=orthogonalEdgeStyle;rounded=0;orthogonalLoop=1;jettySize=auto;html=1;exitX=1;exitY=0.5;exitDx=0;exitDy=0;entryX=0;entryY=0.5;entryDx=0;entryDy=0;" parent="1" edge="1">
          <mxGeometry relative="1" as="geometry">
            <mxPoint x="620" y="505" as="sourcePoint" />
            <mxPoint x="660" y="505" as="targetPoint" />
          </mxGeometry>
        </mxCell>
        <mxCell id="xBaGsDeBP5O27WkXcvYu-1" value="End" style="ellipse;whiteSpace=wrap;html=1;" parent="1" vertex="1">
          <mxGeometry x="550" y="665" width="120" height="60" as="geometry" />
        </mxCell>
        <mxCell id="xBaGsDeBP5O27WkXcvYu-2" value="End" style="ellipse;whiteSpace=wrap;html=1;" parent="1" vertex="1">
          <mxGeometry x="530" y="835" width="120" height="60" as="geometry" />
        </mxCell>
        <mxCell id="u-rMy0u_MQQLpVvalmU5-1" value="&#xa;&#xa;&lt;span style=&quot;color: rgb(0, 0, 0); font-family: helvetica; font-size: 12px; font-style: normal; font-weight: 400; letter-spacing: normal; text-align: center; text-indent: 0px; text-transform: none; word-spacing: 0px; background-color: rgb(248, 249, 250); display: inline; float: none;&quot;&gt;Add coordinate to&lt;/span&gt;&lt;br style=&quot;color: rgb(0, 0, 0); font-family: helvetica; font-size: 12px; font-style: normal; font-weight: 400; letter-spacing: normal; text-align: center; text-indent: 0px; text-transform: none; word-spacing: 0px; background-color: rgb(248, 249, 250);&quot;&gt;&lt;span style=&quot;color: rgb(0, 0, 0); font-family: helvetica; font-size: 12px; font-style: normal; font-weight: 400; letter-spacing: normal; text-align: center; text-indent: 0px; text-transform: none; word-spacing: 0px; background-color: rgb(248, 249, 250); display: inline; float: none;&quot;&gt;list&lt;/span&gt;&#xa;&#xa;" style="rounded=0;whiteSpace=wrap;html=1;" vertex="1" parent="1">
          <mxGeometry x="520" y="475" width="110" height="60" as="geometry" />
        </mxCell>
        <mxCell id="u-rMy0u_MQQLpVvalmU5-2" value="&lt;span&gt;Set MazeSolved&lt;/span&gt;&lt;br&gt;&lt;span&gt;True&lt;/span&gt;" style="rounded=0;whiteSpace=wrap;html=1;" vertex="1" parent="1">
          <mxGeometry x="660" y="475" width="100" height="60" as="geometry" />
        </mxCell>
        <mxCell id="u-rMy0u_MQQLpVvalmU5-3" value="&lt;span&gt;Add coordinate to&lt;/span&gt;&lt;br&gt;&lt;span&gt;list&lt;/span&gt;" style="rounded=0;whiteSpace=wrap;html=1;" vertex="1" parent="1">
          <mxGeometry x="340" y="970" width="120" height="60" as="geometry" />
        </mxCell>
        <mxCell id="u-rMy0u_MQQLpVvalmU5-5" value="" style="edgeStyle=orthogonalEdgeStyle;rounded=0;orthogonalLoop=1;jettySize=auto;html=1;" edge="1" parent="1" source="u-rMy0u_MQQLpVvalmU5-4">
          <mxGeometry relative="1" as="geometry">
            <mxPoint x="400" y="1179" as="targetPoint" />
          </mxGeometry>
        </mxCell>
        <mxCell id="u-rMy0u_MQQLpVvalmU5-4" value="&lt;span&gt;Call RecursiveSort, one to the left of current position&lt;/span&gt;" style="rounded=0;whiteSpace=wrap;html=1;" vertex="1" parent="1">
          <mxGeometry x="340" y="1060" width="120" height="60" as="geometry" />
        </mxCell>
        <mxCell id="u-rMy0u_MQQLpVvalmU5-6" value="&lt;span&gt;Call RecursiveSort, one to the right of current position&lt;/span&gt;" style="rounded=0;whiteSpace=wrap;html=1;" vertex="1" parent="1">
          <mxGeometry x="340" y="1180" width="120" height="60" as="geometry" />
        </mxCell>
        <mxCell id="u-rMy0u_MQQLpVvalmU5-7" value="&lt;span&gt;Call RecursiveSort, one to the top of current position&lt;/span&gt;" style="rounded=0;whiteSpace=wrap;html=1;" vertex="1" parent="1">
          <mxGeometry x="340" y="1300" width="120" height="60" as="geometry" />
        </mxCell>
        <mxCell id="u-rMy0u_MQQLpVvalmU5-9" value="&lt;span&gt;Call RecursiveSort, one to the bottom of current position&lt;/span&gt;" style="rounded=0;whiteSpace=wrap;html=1;" vertex="1" parent="1">
          <mxGeometry x="340" y="1410" width="120" height="60" as="geometry" />
        </mxCell>
        <mxCell id="u-rMy0u_MQQLpVvalmU5-10" value="True" style="text;html=1;align=center;verticalAlign=middle;resizable=0;points=[];autosize=1;strokeColor=none;fillColor=none;" vertex="1" parent="1">
          <mxGeometry x="450" y="455" width="40" height="20" as="geometry" />
        </mxCell>
        <mxCell id="u-rMy0u_MQQLpVvalmU5-11" value="True" style="text;html=1;align=center;verticalAlign=middle;resizable=0;points=[];autosize=1;strokeColor=none;fillColor=none;" vertex="1" parent="1">
          <mxGeometry x="470" y="665" width="40" height="20" as="geometry" />
        </mxCell>
        <mxCell id="u-rMy0u_MQQLpVvalmU5-12" value="True" style="text;html=1;align=center;verticalAlign=middle;resizable=0;points=[];autosize=1;strokeColor=none;fillColor=none;" vertex="1" parent="1">
          <mxGeometry x="470" y="835" width="40" height="20" as="geometry" />
        </mxCell>
        <mxCell id="u-rMy0u_MQQLpVvalmU5-13" value="False" style="text;html=1;align=center;verticalAlign=middle;resizable=0;points=[];autosize=1;strokeColor=none;fillColor=none;" vertex="1" parent="1">
          <mxGeometry x="430" y="550" width="40" height="20" as="geometry" />
        </mxCell>
        <mxCell id="u-rMy0u_MQQLpVvalmU5-14" value="False" style="text;html=1;align=center;verticalAlign=middle;resizable=0;points=[];autosize=1;strokeColor=none;fillColor=none;" vertex="1" parent="1">
          <mxGeometry x="414" y="760" width="40" height="20" as="geometry" />
        </mxCell>
        <mxCell id="u-rMy0u_MQQLpVvalmU5-15" value="False" style="text;html=1;align=center;verticalAlign=middle;resizable=0;points=[];autosize=1;strokeColor=none;fillColor=none;" vertex="1" parent="1">
          <mxGeometry x="414" y="940" width="40" height="20" as="geometry" />
        </mxCell>
        <mxCell id="u-rMy0u_MQQLpVvalmU5-16" value="End" style="ellipse;whiteSpace=wrap;html=1;rounded=0;" vertex="1" parent="1">
          <mxGeometry x="340" y="1520" width="120" height="60" as="geometry" />
        </mxCell>
        <mxCell id="u-rMy0u_MQQLpVvalmU5-20" value="" style="edgeStyle=orthogonalEdgeStyle;rounded=0;orthogonalLoop=1;jettySize=auto;html=1;exitX=0.5;exitY=1;exitDx=0;exitDy=0;" edge="1" parent="1">
          <mxGeometry relative="1" as="geometry">
            <mxPoint x="399.5" y="1470" as="sourcePoint" />
            <mxPoint x="399.5" y="1520" as="targetPoint" />
          </mxGeometry>
        </mxCell>
      </root>
    </mxGraphModel>
  </diagram>
</mxfile>
